<?xml version="1.0" encoding="UTF-8" standalone="no"?>
<!-- Created with Inkscape (http://www.inkscape.org/) -->

<svg
   xmlns:dc="http://purl.org/dc/elements/1.1/"
   xmlns:cc="http://creativecommons.org/ns#"
   xmlns:rdf="http://www.w3.org/1999/02/22-rdf-syntax-ns#"
   xmlns:svg="http://www.w3.org/2000/svg"
   xmlns="http://www.w3.org/2000/svg"
   xmlns:sodipodi="http://sodipodi.sourceforge.net/DTD/sodipodi-0.dtd"
   xmlns:inkscape="http://www.inkscape.org/namespaces/inkscape"
   width="53.616196mm"
   height="41.32901mm"
   viewBox="0 0 189.97865 146.44137"
   id="svg3647"
   version="1.1"
   inkscape:version="0.91 r13725"
   sodipodi:docname="dessin-1.svg">
  <defs
     id="defs3649" />
  <sodipodi:namedview
     id="base"
     pagecolor="#ffffff"
     bordercolor="#666666"
     borderopacity="1.0"
     inkscape:pageopacity="0.0"
     inkscape:pageshadow="2"
     inkscape:zoom="1.4"
     inkscape:cx="180.4779"
     inkscape:cy="-3.7028119"
     inkscape:document-units="px"
     inkscape:current-layer="layer1"
     showgrid="false"
     showborder="false"
     fit-margin-top="0"
     fit-margin-left="0"
     fit-margin-right="0"
     fit-margin-bottom="0"
     inkscape:window-width="1303"
     inkscape:window-height="744"
     inkscape:window-x="63"
     inkscape:window-y="24"
     inkscape:window-maximized="1" />
  <metadata
     id="metadata3652">
    <rdf:RDF>
      <cc:Work
         rdf:about="">
        <dc:format>image/svg+xml</dc:format>
        <dc:type
           rdf:resource="http://purl.org/dc/dcmitype/StillImage" />
        <dc:title></dc:title>
      </cc:Work>
    </rdf:RDF>
  </metadata>
  <g
     inkscape:label="Calque 1"
     inkscape:groupmode="layer"
     id="layer1"
     transform="translate(-333.58212,-421.99868)">
    <path
       style="fill:#280b0b"
       d="M 81.580078 0.0234375 A 22.5 28.571428 59.437278 0 0 65.691406 4.8417969 A 22.5 28.571428 59.437278 0 0 52.529297 38.744141 A 22.5 28.571428 59.437278 0 0 88.572266 43.589844 A 22.5 28.571428 59.437278 0 0 101.73438 9.6875 A 22.5 28.571428 59.437278 0 0 81.580078 0.0234375 z M 72.177734 9.9628906 A 15.314495 17.186598 63.758295 0 1 87.207031 18.869141 A 15.314495 17.186598 63.758295 0 1 77.267578 39.804688 A 15.314495 17.186598 63.758295 0 1 55.628906 32.419922 A 15.314495 17.186598 63.758295 0 1 65.568359 11.484375 A 15.314495 17.186598 63.758295 0 1 72.177734 9.9628906 z "
       transform="translate(333.58212,421.99868)"
       id="path3461" />
    <path
       style="fill:#280b0b"
       d="M 148.72461 1.8085938 A 22.5 28.571428 59.437278 0 0 132.83398 6.6269531 A 22.5 28.571428 59.437278 0 0 119.67383 40.529297 A 22.5 28.571428 59.437278 0 0 155.7168 45.375 A 22.5 28.571428 59.437278 0 0 168.87695 11.474609 A 22.5 28.571428 59.437278 0 0 148.72461 1.8085938 z M 140.03516 13.177734 A 15.314495 17.186598 63.758295 0 1 155.0625 22.083984 A 15.314495 17.186598 63.758295 0 1 145.125 43.019531 A 15.314495 17.186598 63.758295 0 1 123.48633 35.632812 A 15.314495 17.186598 63.758295 0 1 133.42578 14.697266 A 15.314495 17.186598 63.758295 0 1 140.03516 13.177734 z "
       transform="translate(333.58212,421.99868)"
       id="path3461-2" />
    <path
       style="fill:#280b0b"
       d="M 31.580078 49.666016 A 22.5 28.571428 59.437278 0 0 15.691406 54.484375 A 22.5 28.571428 59.437278 0 0 2.5292969 88.386719 A 22.5 28.571428 59.437278 0 0 38.572266 93.232422 A 22.5 28.571428 59.437278 0 0 51.734375 59.330078 A 22.5 28.571428 59.437278 0 0 31.580078 49.666016 z M 22.892578 61.035156 A 15.314495 17.186598 63.758295 0 1 37.919922 69.941406 A 15.314495 17.186598 63.758295 0 1 27.982422 90.876953 A 15.314495 17.186598 63.758295 0 1 6.34375 83.490234 A 15.314495 17.186598 63.758295 0 1 16.283203 62.554688 A 15.314495 17.186598 63.758295 0 1 22.892578 61.035156 z "
       transform="translate(333.58212,421.99868)"
       id="path3461-0" />
    <path
       style="fill:#280b0b"
       d="M 97.294922 48.236328 A 22.5 28.571428 59.437278 0 0 81.40625 53.056641 A 22.5 28.571428 59.437278 0 0 68.244141 86.958984 A 22.5 28.571428 59.437278 0 0 104.28711 91.804688 A 22.5 28.571428 59.437278 0 0 117.44922 57.902344 A 22.5 28.571428 59.437278 0 0 97.294922 48.236328 z M 90.035156 61.75 A 15.314495 17.186598 63.758295 0 1 105.0625 70.65625 A 15.314495 17.186598 63.758295 0 1 95.125 91.591797 A 15.314495 17.186598 63.758295 0 1 73.486328 84.205078 A 15.314495 17.186598 63.758295 0 1 83.425781 63.269531 A 15.314495 17.186598 63.758295 0 1 90.035156 61.75 z "
       transform="translate(333.58212,421.99868)"
       id="path3461-3" />
    <path
       style="fill:#280b0b"
       d="M 167.29492 51.09375 A 22.5 28.571428 59.437278 0 0 151.40625 55.914062 A 22.5 28.571428 59.437278 0 0 138.24414 89.816406 A 22.5 28.571428 59.437278 0 0 174.28711 94.662109 A 22.5 28.571428 59.437278 0 0 187.44922 60.759766 A 22.5 28.571428 59.437278 0 0 167.29492 51.09375 z M 159.32227 63.177734 A 15.314495 17.186598 63.758295 0 1 174.34961 72.083984 A 15.314495 17.186598 63.758295 0 1 164.41016 93.019531 A 15.314495 17.186598 63.758295 0 1 142.77344 85.632812 A 15.314495 17.186598 63.758295 0 1 152.71094 64.697266 A 15.314495 17.186598 63.758295 0 1 159.32227 63.177734 z "
       transform="translate(333.58212,421.99868)"
       id="path3461-06" />
    <path
       style="fill:#280b0b"
       d="M 52.208984 97.818359 A 22.5 28.571428 70.620186 0 0 41.123047 99.833984 A 22.5 28.571428 70.620186 0 0 21.636719 130.54102 A 22.5 28.571428 70.620186 0 0 56.054688 142.28516 A 22.5 28.571428 70.620186 0 0 75.541016 111.57812 A 22.5 28.571428 70.620186 0 0 52.208984 97.818359 z M 44.322266 106.75 A 15.314495 17.186598 63.758295 0 1 59.349609 115.65625 A 15.314495 17.186598 63.758295 0 1 49.410156 136.5918 A 15.314495 17.186598 63.758295 0 1 27.773438 129.20508 A 15.314495 17.186598 63.758295 0 1 37.710938 108.26953 A 15.314495 17.186598 63.758295 0 1 44.322266 106.75 z "
       transform="translate(333.58212,421.99868)"
       id="path3461-6" />
    <path
       inkscape:connector-curvature="0"
       style="fill:#280b0b"
       d="m 451.03897,522.0836 a 22.5,28.571428 64.272444 0 0 -10.79512,3.22896 22.5,28.571428 64.272444 0 0 -15.97182,32.67323 22.5,28.571428 64.272444 0 0 35.50542,7.8668 22.5,28.571428 64.272444 0 0 15.97182,-32.67324 22.5,28.571428 64.272444 0 0 -24.7103,-11.09575 z m -6.85086,9.74886 a 15.314495,17.186598 57.410553 0 1 15.9199,7.19018 15.314495,17.186598 57.410553 0 1 -7.56382,21.90613 15.314495,17.186598 57.410553 0 1 -22.32077,-4.94922 15.314495,17.186598 57.410553 0 1 7.56189,-21.90591 15.314495,17.186598 57.410553 0 1 6.4028,-2.24118 z"
       id="path3461-6-2" />
  </g>
</svg>
